<svg xmlns="http://www.w3.org/2000/svg" width="132" height="46" viewBox="0 0 132 46" role="img" aria-labelledby="t d"><title id="t">Medium — read</title><desc id="d">Contact button: MEDIUM</desc><defs><path id="f44" d="M1184 794Q1184 654 1148 542Q1112 429 1048 342Q983 254 894 191Q805 128 699 88Q593 47 474 28Q354 8 228 8Q181 8 136 10Q91 13 44 18L72 1360Q182 1395 298 1410Q415 1424 530 1424Q673 1424 793 1381Q913 1338 1000 1257Q1087 1176 1136 1059Q1184 942 1184 794ZM774 730Q775 784 762 834Q750 884 722 922Q693 961 649 984Q605 1008 544 1010L504 390Q564 399 613 430Q662 460 698 504Q733 549 752 604Q772 658 774 716Z"/><path id="f45" d="M998 1442Q992 1348 987 1256Q982 1164 974 1070L550 1048L540 922H838L816 612L516 602L506 456H754H930Q924 346 918 238Q911 129 906 20L44 0L76 1442Z"/><path id="f49" d="M591 1408 481 46 59 24V1380Z"/><path id="f4d" d="M1597 1458 1505 -10 1049 -30 1053 744 847 120H671L513 678L511 30L49 16L69 1398L583 1418L787 756L1059 1458Z"/><path id="f55" d="M1247 1112Q1247 1038 1240 949Q1233 860 1217 765Q1201 670 1176 572Q1150 475 1112 385Q1074 295 1024 216Q973 138 908 80Q842 21 761 -12Q680 -46 581 -46Q465 -46 380 -8Q294 29 233 92Q172 156 133 240Q94 325 72 420Q50 514 42 612Q33 711 33 802Q33 942 47 1082Q61 1221 87 1360L555 1342Q528 1185 508 1026Q489 868 489 708Q489 691 490 658Q492 624 496 582Q500 541 508 498Q515 454 528 418Q541 382 560 359Q578 336 603 336Q632 336 655 364Q678 391 696 437Q713 483 726 543Q739 603 748 668Q757 733 762 798Q768 863 772 919Q775 975 776 1018Q777 1061 777 1082Q777 1160 774 1238Q772 1315 767 1392H1235Q1247 1254 1247 1112Z"/><path id="m41" d="M266 700H362L614 0H515L453 178H176L114 0H15ZM428 259 315 586H313L202 259Z"/><path id="m44" d="M75 700H494L607 587V113L494 0H75ZM449 84 511 146V554L449 616H171V84Z"/><path id="m45" d="M75 700H545V616H171V393H516V310H171V84H545V0H75Z"/><path id="m52" d="M589 220V0H493V196L410 285H171V0H75V700H488L585 603V385L508 308ZM171 367H445L490 411V574L445 618H171Z"/><clipPath id="b1"><path d="M0,0 H132 V36 L122,46 H0 Z"/></clipPath><linearGradient id="gl" x1="0" y1="0" x2="1" y2="0"><stop offset="0" stop-color="#fff" stop-opacity="0"/><stop offset=".5" stop-color="#fff" stop-opacity=".18"/><stop offset="1" stop-color="#fff" stop-opacity="0"/></linearGradient></defs><style>@media (prefers-reduced-motion: reduce){*{animation:none!important}}.glint{animation:gl 7s ease-in-out 1.75s infinite}@keyframes gl{0%{transform:translateX(0) skewX(-20deg)}22%,100%{transform:translateX(250px) skewX(-20deg)}}</style><path d="M0,0 H132 V36 L122,46 H0 Z" fill="#231f3b"/><path d="M1.5,1.5 H130.5 V35.5 L121.5,44.5 H1.5 Z" fill="none" stroke="#f1eefa" stroke-opacity=".45" stroke-width="2"/><rect x="8" y="8" width="30" height="30" rx="6" fill="#111111" stroke="#ffffff30"/><g transform="translate(13 13) scale(0.8333)"><path d="M13.54 12a6.8 6.8 0 01-6.77 6.82A6.8 6.8 0 010 12a6.8 6.8 0 016.77-6.82A6.8 6.8 0 0113.54 12zM20.96 12c0 3.54-1.51 6.42-3.38 6.42-1.87 0-3.39-2.88-3.39-6.42s1.52-6.42 3.39-6.42 3.38 2.88 3.38 6.42M24 12c0 3.17-.53 5.75-1.19 5.75-.66 0-1.19-2.58-1.19-5.75s.53-5.75 1.19-5.75C23.47 6.25 24 8.83 24 12z" fill="#fff"/></g><g transform="translate(46.0 24.0) scale(0.00610 -0.00610)" fill="#fff" stroke="#0b0a10" stroke-width="262" paint-order="stroke" stroke-linejoin="round"><use href="#f4d"/><use href="#f45" x="1701"/><use href="#f44" x="2764"/><use href="#f49" x="4039"/><use href="#f55" x="4730"/><use href="#f4d" x="6088"/></g><g transform="translate(46.0 37.0) scale(0.00900 -0.00900)" fill="#cdc6e4"><use href="#m52"/><use href="#m45" x="759"/><use href="#m41" x="1449"/><use href="#m44" x="2178"/></g><g clip-path="url(#b1)"><rect class="glint" x="-60" y="-10" width="46" height="70" fill="url(#gl)"/></g></svg>